<svg width="52" height="66" viewBox="0 0 52 66" fill="none" xmlns="http://www.w3.org/2000/svg">
<path d="M50.6158 0H1.34975C0.604305 0 0 0.611363 0 1.36552V8.87586C0 9.63002 0.604305 10.2414 1.34975 10.2414H50.6158C51.3612 10.2414 51.9655 9.63002 51.9655 8.87586V1.36552C51.9655 0.611363 51.3612 0 50.6158 0Z" fill="white"/>
<path d="M37.0305 38.9081C37.2037 38.7347 37.4399 38.6379 37.6851 38.6379H50.636C51.3694 38.6379 51.9655 38.0411 51.9655 37.3069V29.8347C51.9655 29.1005 51.3694 28.5038 50.636 28.5038C49.4505 28.5038 48.8588 27.0692 49.6957 26.2315L51.5763 24.3488C51.826 24.0988 51.9655 23.761 51.9655 23.4074V15.3654C51.9655 14.6313 51.3694 14.0345 50.636 14.0345H1.32951C0.596142 14.0345 0 14.6313 0 15.3654V22.8377C0 23.5718 0.596142 24.1686 1.32951 24.1686H34.2298C35.4153 24.1686 36.0069 25.6031 35.1701 26.4409L33.4986 28.1142C33.2489 28.3641 32.9115 28.5038 32.5583 28.5038H1.32951C0.596142 28.5038 0 29.1005 0 29.8347V64.6691C0 65.4032 0.596142 66 1.32951 66H10.1232M10.1209 49.0152V39.6716C10.1209 39.0995 10.5843 38.6356 11.1557 38.6356H20.4893C21.4116 38.6356 21.8728 39.7504 21.2204 40.4035L11.8868 49.7471C11.2345 50.4002 10.1209 49.9363 10.1209 49.0152Z" fill="white"/>
<path d="M43.4311 66C48.1446 66 51.9656 62.2639 51.9656 57.6552C51.9656 53.0465 48.1446 49.3103 43.4311 49.3103C38.7176 49.3103 34.8966 53.0465 34.8966 57.6552C34.8966 62.2639 38.7176 66 43.4311 66Z" fill="white"/>
</svg>
