<svg width="32" height="40" viewBox="0 0 32 40" fill="none" xmlns="http://www.w3.org/2000/svg">
<path d="M30.6762 0H0.818033C0.366246 0 0 0.370523 0 0.827586V5.37931C0 5.83637 0.366246 6.2069 0.818033 6.2069H30.6762C31.128 6.2069 31.4943 5.83637 31.4943 5.37931V0.827586C31.4943 0.370523 31.128 0 30.6762 0Z" fill="white"/>
<path d="M22.4427 23.5807C22.5477 23.4756 22.6909 23.4169 22.8395 23.4169H30.6885C31.133 23.4169 31.4943 23.0552 31.4943 22.6103V18.0816C31.4943 17.6367 31.133 17.275 30.6885 17.275C29.97 17.275 29.6114 16.4056 30.1186 15.8979L31.2584 14.7568C31.4097 14.6053 31.4943 14.4006 31.4943 14.1863V9.31239C31.4943 8.86744 31.133 8.50575 30.6885 8.50575H0.805763C0.361298 8.50575 0 8.86744 0 9.31239V13.841C0 14.286 0.361298 14.6476 0.805763 14.6476H20.7453C21.4638 14.6476 21.8224 15.5171 21.3152 16.0248L20.3022 17.0389C20.1509 17.1904 19.9464 17.275 19.7323 17.275H0.805763C0.361298 17.275 0 17.6367 0 18.0816V39.1934C0 39.6383 0.361298 40 0.805763 40H6.13524M6.13388 29.7062V24.0434C6.13388 23.6967 6.41474 23.4155 6.76104 23.4155H12.4177C12.9767 23.4155 13.2562 24.0911 12.8608 24.487L7.20414 30.1498C6.80876 30.5456 6.13388 30.2644 6.13388 29.7062Z" fill="white"/>
<path d="M26.3218 40C29.1785 40 31.4942 37.7357 31.4942 34.9425C31.4942 32.1494 29.1785 29.8851 26.3218 29.8851C23.4652 29.8851 21.1494 32.1494 21.1494 34.9425C21.1494 37.7357 23.4652 40 26.3218 40Z" fill="white"/>
</svg>
