<svg width="33" height="33" viewBox="0 0 33 33" fill="none" xmlns="http://www.w3.org/2000/svg">
<path d="M2.0625 12.5125C2.0625 8.85465 2.0625 7.02573 2.77436 5.62862C3.40054 4.39969 4.39969 3.40054 5.62862 2.77436C7.02573 2.0625 8.85465 2.0625 12.5125 2.0625H20.4875C24.1454 2.0625 25.9743 2.0625 27.3713 2.77436C28.6003 3.40054 29.5995 4.39969 30.2256 5.62862C30.9375 7.02573 30.9375 8.85465 30.9375 12.5125V20.4875C30.9375 24.1454 30.9375 25.9743 30.2256 27.3713C29.5995 28.6003 28.6003 29.5995 27.3713 30.2256C25.9743 30.9375 24.1454 30.9375 20.4875 30.9375H12.5125C8.85465 30.9375 7.02573 30.9375 5.62862 30.2256C4.39969 29.5995 3.40054 28.6003 2.77436 27.3713C2.0625 25.9743 2.0625 24.1454 2.0625 20.4875V12.5125Z" fill="white"/>
<path d="M14.2202 20.1751H9.74572L8.83533 23.0813C8.81005 23.1891 8.71081 23.2654 8.60287 23.2601H6.33656C6.20732 23.2601 6.16212 23.1873 6.20097 23.0416L10.075 11.6455C10.1138 11.5264 10.1525 11.4098 10.1913 11.2574C10.2419 10.9923 10.2679 10.7229 10.2687 10.4528C10.2576 10.373 10.3265 10.3023 10.4043 10.3137H13.4842C13.5744 10.3137 13.626 10.3468 13.6391 10.413L18.0363 23.0614C18.0749 23.194 18.0361 23.2602 17.92 23.2601H15.4018C15.3135 23.2701 15.2292 23.2096 15.2082 23.121L14.2202 20.1751ZM10.4431 17.7248H13.5036C13.0008 16.0065 12.4333 14.3109 11.9733 12.5793C11.4521 14.3755 10.9708 16.0414 10.4431 17.7248Z" fill="black"/>
<path d="M21.3065 19.053C21.4846 20.5286 22.7238 21.2321 24.0959 21.2021C24.8696 21.187 25.6965 21.0668 26.4195 20.7743C26.4838 20.7216 26.5163 20.7545 26.5163 20.8737V22.761C26.5224 22.8591 26.4813 22.9469 26.4001 22.9994C25.5014 23.4076 24.47 23.5307 23.4954 23.515C20.5895 23.515 18.5939 21.4676 18.5948 18.4887C18.5871 15.6658 20.4185 13.2842 23.2629 13.2842C25.6741 13.2217 27.3434 15.1521 27.3501 17.555C27.3501 17.9926 27.3256 18.4318 27.2726 18.8661C27.2623 18.9557 27.1861 19.0252 27.0982 19.0252C25.1726 19.0252 23.2375 19.053 21.3065 19.053ZM21.3065 17.2432C22.3797 17.2432 23.4592 17.2811 24.5317 17.2333C24.6928 17.2168 24.8126 17.1861 24.8126 17.0186C24.7902 16.1278 24.0384 15.3951 23.1661 15.4292C22.1121 15.3638 21.4376 16.2536 21.3065 17.2432Z" fill="black"/>
</svg>
