<svg width="33" height="33" viewBox="0 0 33 33" fill="none" xmlns="http://www.w3.org/2000/svg">
<path d="M31.2034 10.0827H31.2807C31.3705 10.0827 31.4096 10.0703 31.4096 9.99293C31.4096 9.92899 31.3705 9.90321 31.2807 9.90321H31.191V10.0837L31.2034 10.0827ZM31.1776 10.4694H31.0487V9.79906L31.3065 9.78668C31.3168 9.78565 31.3302 9.78565 31.3426 9.78565C31.4138 9.78565 31.4808 9.80009 31.5416 9.8269L31.5386 9.82587C31.585 9.85165 31.6159 9.90012 31.6159 9.95581C31.6159 9.95993 31.6159 9.96406 31.6159 9.96818V9.96715C31.6159 10.0445 31.5643 10.0961 31.4746 10.1084C31.5386 10.1342 31.5643 10.1858 31.5901 10.2755L31.6293 10.4426H31.4746C31.4488 10.4168 31.4488 10.3528 31.4231 10.2755C31.3973 10.2105 31.3715 10.1858 31.2818 10.1858H31.2178L31.1921 10.4694H31.1776ZM30.7919 10.1342C30.7919 10.1383 30.7919 10.1435 30.7919 10.1486C30.7919 10.425 31.0167 10.6498 31.2931 10.6498C31.2983 10.6498 31.3034 10.6498 31.3086 10.6498H31.3076C31.5808 10.6354 31.7974 10.4106 31.7974 10.1342C31.7974 9.85784 31.5808 9.63302 31.3086 9.61859H31.3076C31.2941 9.61756 31.2797 9.61653 31.2642 9.61653C31.0023 9.61653 30.7899 9.82896 30.7899 10.0909C30.7899 10.1064 30.7909 10.1208 30.7919 10.1363V10.1342ZM31.9645 10.1342C31.9645 10.1383 31.9645 10.1445 31.9645 10.1497C31.9645 10.5044 31.6767 10.7932 31.321 10.7932C31.3065 10.7932 31.2931 10.7932 31.2787 10.7922H31.2807C31.2725 10.7922 31.2642 10.7932 31.255 10.7932C30.8961 10.7932 30.6053 10.5055 30.5981 10.1486C30.6063 9.7774 30.9085 9.47834 31.2807 9.47731C31.29 9.47627 31.3014 9.47628 31.3137 9.47628C31.6726 9.47628 31.9645 9.76709 31.9645 10.127C31.9645 10.1301 31.9645 10.1322 31.9645 10.1352V10.1342ZM24.6704 17.2601H26.2039V15.7648H24.657V14.2314H23.2009V15.7782H21.654V17.2601H23.2009V18.7812H24.6828V17.2736L24.6704 17.2601ZM6.46062 17.2601H11.0229V15.7648H6.47402V17.2601H6.46062ZM17.7889 16.5001C18.8583 14.2087 20.8558 12.503 23.2834 11.8482L23.3432 11.8347C23.5433 11.8007 23.7743 11.7811 24.0094 11.7811C24.0558 11.7811 24.1022 11.7821 24.1486 11.7832H24.1414C24.1837 11.7821 24.2342 11.7811 24.2847 11.7811C26.9165 11.7811 29.0574 13.8787 29.1285 16.4929V16.4991C29.0429 19.1226 26.8959 21.2171 24.26 21.2171C24.2229 21.2171 24.1857 21.2171 24.1486 21.216H24.1538C23.896 21.216 23.6124 21.1902 23.3546 21.1645C20.8692 20.4921 18.8738 18.7874 17.8219 16.5517L17.8002 16.5001H17.7889ZM9.38627 21.1397C9.18312 21.1737 8.94799 21.1933 8.70874 21.1933C8.6613 21.1933 8.61387 21.1923 8.56746 21.1913H8.57468C8.54374 21.1923 8.50662 21.1923 8.46949 21.1923C5.83568 21.1923 3.69171 19.0968 3.61334 16.4816V16.4743C3.69893 13.8508 5.84599 11.7564 8.48187 11.7564C8.51899 11.7564 8.55612 11.7564 8.59324 11.7574H8.58809C8.8459 11.7574 9.12949 11.7832 9.39968 11.809C11.8922 12.4679 13.8918 14.1767 14.9323 16.4217L14.954 16.4733C13.897 18.773 11.8943 20.4838 9.45846 21.1253L9.39968 21.1387L9.38627 21.1397ZM31.7324 16.5001C31.653 12.4473 28.3499 9.19165 24.2847 9.19165C24.2394 9.19165 24.193 9.19165 24.1476 9.19268H24.1548C23.7815 9.19268 23.3814 9.21846 22.9946 9.25662C20.1783 9.81865 17.8343 11.5027 16.4081 13.8147L16.3833 13.8581C14.9158 11.514 12.5739 9.83412 9.82455 9.26899L9.75959 9.25765C9.37287 9.21949 8.98615 9.19371 8.59943 9.19371C8.56437 9.19268 8.52312 9.19268 8.48187 9.19268C4.41771 9.19268 1.11359 12.4473 1.03418 16.4929V16.5001C1.11359 20.5529 4.41771 23.8076 8.48187 23.8076C8.52312 23.8076 8.56437 23.8076 8.60562 23.8065H8.59943C9.01812 23.8055 9.42959 23.7776 9.8328 23.724L9.78434 23.7292C12.6038 23.1733 14.9519 21.4924 16.3833 19.1845L16.4081 19.1422C17.8724 21.4883 20.2165 23.1692 22.9668 23.7312L23.0318 23.7426C23.4309 23.7807 23.8052 23.8065 24.2043 23.8065C24.228 23.8065 24.2548 23.8065 24.2827 23.8065C28.3468 23.8065 31.651 20.5519 31.7293 16.5063V16.4991L31.7324 16.5001Z" fill="white"/>
</svg>
