<svg width="33" height="33" viewBox="0 0 33 33" fill="none" xmlns="http://www.w3.org/2000/svg">
<path d="M32.8713 18.0237C32.6781 16.6639 32.2071 15.3744 31.4712 14.1914C30.8292 13.1589 30.0056 12.2406 29.0225 11.4602L29.0251 11.4577L18.7 3.52748C18.6915 3.52001 18.6826 3.51304 18.6768 3.50898C18.3334 3.24602 17.8686 3.10132 17.3685 3.10132C16.8678 3.10132 16.3848 3.24634 16.0093 3.50976C15.6056 3.79174 15.3749 4.16589 15.3588 4.56421C15.344 4.93572 15.5213 5.29324 15.8592 5.572C16.5237 6.09626 17.1868 6.63206 17.8507 7.16838C18.495 7.68916 19.1589 8.22547 19.8196 8.74761L7.1731 8.73903C5.72683 8.73903 4.74205 9.41818 4.53948 10.5552C4.45047 11.0532 4.60754 11.6008 4.95868 12.0202C5.33122 12.4649 5.87211 12.7101 6.48164 12.7101L7.44573 12.7107C8.77759 12.7107 10.1153 12.7075 11.4512 12.7043L12.7252 12.7013L1.24747 21.1929L1.2019 21.2261C0.560786 21.7176 0.141067 22.4065 0.0505107 23.1162C-0.0181319 23.6539 0.107294 24.1452 0.413382 24.5376C0.778187 25.0053 1.34776 25.2626 2.0173 25.2626C2.67504 25.2626 3.34619 25.0134 3.90797 24.5596L10.1062 19.4871C10.0797 19.7348 10.0475 20.0982 10.0512 20.3619C10.0581 20.7795 10.1922 21.6174 10.4045 22.2977C10.843 23.6957 11.5817 24.9748 12.5999 26.0981C13.6594 27.2667 14.9498 28.1933 16.4349 28.8516C18.005 29.546 19.6928 29.8985 21.4517 29.8985H21.468C23.2324 29.8942 24.9256 29.5361 26.5008 28.8338C27.9884 28.1678 29.2781 27.2374 30.3336 26.0689C31.3506 24.9399 32.0882 23.6587 32.5259 22.2618C32.7422 21.5708 32.8816 20.8554 32.9395 20.1347C32.9935 19.4367 32.9703 18.7264 32.8713 18.0237ZM21.5803 24.7242C17.704 24.7242 14.5606 21.9123 14.5606 18.4434C14.5606 14.9749 17.704 12.163 21.5803 12.163C25.4566 12.163 28.5997 14.9749 28.5997 18.4434C28.5998 21.9123 25.4566 24.7242 21.5803 24.7242ZM25.6283 17.8915C25.6855 18.9269 25.2719 19.8881 24.5458 20.5998C23.8071 21.3247 22.753 21.7801 21.5744 21.7801C20.3961 21.7801 19.3419 21.3247 18.603 20.5998C17.8771 19.8881 17.4644 18.9269 17.5212 17.8923C17.5769 16.8867 18.0675 15.999 18.8064 15.3704C19.533 14.7524 20.5086 14.3753 21.5743 14.3753C22.6402 14.3753 23.6156 14.7524 24.3423 15.3704C25.0813 15.999 25.5721 16.8861 25.6283 17.8915Z" fill="white"/>
</svg>
