<svg width="1124" height="185" viewBox="0 0 1124 185" fill="none" xmlns="http://www.w3.org/2000/svg">
<mask id="path-1-outside-1_18_6" maskUnits="userSpaceOnUse" x="-0.744019" y="-0.489315" width="1125" height="186" fill="black">
<rect fill="white" x="-0.744019" y="-0.489315" width="1125" height="186"/>
<path d="M81.8727 124.805V0.847067H125.301V124.805C125.301 136.882 122.53 147.347 116.988 156.198C111.528 165.049 104.083 171.915 94.6531 176.796C85.3056 181.593 74.8 183.992 63.1363 183.992C51.0589 183.992 40.3051 181.966 30.8749 177.912C21.5274 173.859 14.1652 167.613 8.78828 159.176C3.49411 150.738 0.847021 139.985 0.847021 126.915H44.5239C44.5239 133.036 45.2271 137.834 46.6333 141.308C48.0396 144.7 50.1076 147.099 52.8374 148.505C55.65 149.828 59.0829 150.49 63.1363 150.49C67.1069 150.49 70.4571 149.497 73.1869 147.512C75.9994 145.444 78.1502 142.508 79.6392 138.702C81.1282 134.814 81.8727 130.182 81.8727 124.805ZM199.254 0.847067V181.511H155.826V0.847067H199.254ZM308.695 38.8162L264.646 181.511H217.867L284.251 0.847067H313.906L308.695 38.8162ZM345.175 181.511L301.002 38.8162L295.294 0.847067H325.322L392.078 181.511H345.175ZM343.438 114.134V147.76H250.748V114.134H343.438ZM419.5 0.847067L452.754 79.267L486.132 0.847067H533.035L474.965 116.616V181.511H430.668V116.616L372.473 0.847067H419.5ZM632.425 0.847067H675.978V118.849C675.978 132.912 673.041 144.824 667.168 154.585C661.295 164.263 653.064 171.584 642.476 176.547C631.888 181.511 619.438 183.992 605.127 183.992C590.982 183.992 578.532 181.511 567.778 176.547C557.107 171.584 548.752 164.263 542.714 154.585C536.758 144.824 533.78 132.912 533.78 118.849V0.847067H577.457V118.849C577.457 126.294 578.532 132.374 580.683 137.089C582.834 141.722 585.977 145.113 590.113 147.264C594.249 149.415 599.254 150.49 605.127 150.49C611.083 150.49 616.088 149.415 620.141 147.264C624.194 145.113 627.255 141.722 629.323 137.089C631.391 132.374 632.425 126.294 632.425 118.849V0.847067ZM886.049 148.009V181.511H794.725V148.009H886.049ZM810.235 0.847067V181.511H766.682V0.847067H810.235ZM950.696 0.847067V181.511H907.267V0.847067H950.696ZM1079.37 0.847067H1122.92V118.849C1122.92 132.912 1119.99 144.824 1114.11 154.585C1108.24 164.263 1100.01 171.584 1089.42 176.547C1078.83 181.511 1066.38 183.992 1052.07 183.992C1037.93 183.992 1025.48 181.511 1014.72 176.547C1004.05 171.584 995.696 164.263 989.658 154.585C983.702 144.824 980.724 132.912 980.724 118.849V0.847067H1024.4V118.849C1024.4 126.294 1025.48 132.374 1027.63 137.089C1029.78 141.722 1032.92 145.113 1037.06 147.264C1041.19 149.415 1046.2 150.49 1052.07 150.49C1058.03 150.49 1063.03 149.415 1067.08 147.264C1071.14 145.113 1074.2 141.722 1076.27 137.089C1078.34 132.374 1079.37 126.294 1079.37 118.849V0.847067Z"/>
</mask>
<path d="M81.8727 0.847067V-1.01328e-06H81.0256V0.847067H81.8727ZM125.301 0.847067H126.148V-1.01328e-06H125.301V0.847067ZM116.988 156.198L116.27 155.748L116.267 155.753L116.988 156.198ZM94.6531 176.796L95.0399 177.549L95.0425 177.548L94.6531 176.796ZM30.8749 177.912L30.5379 178.689L30.5404 178.691L30.8749 177.912ZM8.78828 159.176L8.07074 159.626L8.07393 159.631L8.78828 159.176ZM0.847021 126.915V126.067H-4.63352e-05V126.915H0.847021ZM44.5239 126.915H45.371V126.067H44.5239V126.915ZM46.6333 141.308L45.8481 141.626L45.8509 141.633L46.6333 141.308ZM52.8374 148.505L52.4495 149.258L52.463 149.265L52.4768 149.271L52.8374 148.505ZM73.1869 147.512L73.6851 148.197L73.6887 148.195L73.1869 147.512ZM79.6392 138.702L80.428 139.011L80.4302 139.005L79.6392 138.702ZM81.8727 124.805H82.7197V0.847067H81.8727H81.0256V124.805H81.8727ZM81.8727 0.847067V1.69413H125.301V0.847067V-1.01328e-06H81.8727V0.847067ZM125.301 0.847067H124.454V124.805H125.301H126.148V0.847067H125.301ZM125.301 124.805H124.454C124.454 136.749 121.715 147.052 116.27 155.748L116.988 156.198L117.706 156.647C123.345 147.642 126.148 137.016 126.148 124.805H125.301ZM116.988 156.198L116.267 155.753C110.89 164.471 103.561 171.232 94.2638 176.043L94.6531 176.796L95.0425 177.548C104.606 172.598 112.167 165.627 117.709 156.643L116.988 156.198ZM94.6531 176.796L94.2663 176.042C85.0512 180.772 74.6805 183.145 63.1363 183.145V183.992V184.839C74.9195 184.839 85.56 182.415 95.0399 177.549L94.6531 176.796ZM63.1363 183.992V183.145C51.1539 183.145 40.517 181.135 31.2094 177.134L30.8749 177.912L30.5404 178.691C40.0933 182.797 50.964 184.839 63.1363 184.839V183.992ZM30.8749 177.912L31.2119 177.135C22.0164 173.148 14.7869 167.013 9.50263 158.721L8.78828 159.176L8.07393 159.631C13.5434 168.214 21.0383 174.57 30.5379 178.689L30.8749 177.912ZM8.78828 159.176L9.5058 158.726C4.31888 150.459 1.69409 139.874 1.69409 126.915H0.847021H-4.63352e-05C-4.63352e-05 140.095 2.66933 151.018 8.07076 159.626L8.78828 159.176ZM0.847021 126.915V127.762H44.5239V126.915V126.067H0.847021V126.915ZM44.5239 126.915H43.6769C43.6769 133.085 44.3833 138.007 45.8482 141.626L46.6333 141.308L47.4185 140.99C46.0709 137.661 45.371 132.987 45.371 126.915H44.5239ZM46.6333 141.308L45.8509 141.633C47.3181 145.171 49.5083 147.743 52.4495 149.258L52.8374 148.505L53.2254 147.752C50.7069 146.454 48.7611 144.228 47.4158 140.984L46.6333 141.308ZM52.8374 148.505L52.4768 149.271C55.431 150.661 58.9946 151.337 63.1363 151.337V150.49V149.643C59.1712 149.643 55.869 148.995 53.1981 147.738L52.8374 148.505ZM63.1363 150.49V151.337C67.2534 151.337 70.7863 150.305 73.6851 148.197L73.1869 147.512L72.6887 146.827C70.1279 148.689 66.9604 149.643 63.1363 149.643V150.49ZM73.1869 147.512L73.6887 148.195C76.651 146.016 78.8908 142.94 80.428 139.011L79.6392 138.702L78.8504 138.394C77.4096 142.076 75.3478 144.872 72.6851 146.83L73.1869 147.512ZM79.6392 138.702L80.4302 139.005C81.9653 134.997 82.7197 130.257 82.7197 124.805H81.8727H81.0256C81.0256 130.107 80.2911 134.632 78.8482 138.399L79.6392 138.702ZM199.254 0.847067H200.101V-1.01328e-06H199.254V0.847067ZM199.254 181.511V182.358H200.101V181.511H199.254ZM155.826 181.511H154.979V182.358H155.826V181.511ZM155.826 0.847067V-1.01328e-06H154.979V0.847067H155.826ZM199.254 0.847067H198.407V181.511H199.254H200.101V0.847067H199.254ZM199.254 181.511V180.664H155.826V181.511V182.358H199.254V181.511ZM155.826 181.511H156.673V0.847067H155.826H154.979V181.511H155.826ZM155.826 0.847067V1.69413H199.254V0.847067V-1.01328e-06H155.826V0.847067ZM308.695 38.8162L309.504 39.0661L309.525 38.9999L309.534 38.9314L308.695 38.8162ZM264.646 181.511V182.358H265.271L265.455 181.761L264.646 181.511ZM217.867 181.511L217.072 181.219L216.653 182.358H217.867V181.511ZM284.251 0.847067V-1.01328e-06H283.659L283.456 0.554914L284.251 0.847067ZM313.906 0.847067L314.745 0.962251L314.878 -1.01328e-06H313.906V0.847067ZM345.175 181.511L344.366 181.761L344.55 182.358H345.175V181.511ZM301.002 38.8162L300.164 38.9421L300.174 39.0055L300.193 39.0667L301.002 38.8162ZM295.294 0.847067V-1.01328e-06H294.31L294.456 0.972989L295.294 0.847067ZM325.322 0.847067L326.116 0.553472L325.912 -1.01328e-06H325.322V0.847067ZM392.078 181.511V182.358H393.294L392.873 181.217L392.078 181.511ZM343.438 114.134H344.285V113.287H343.438V114.134ZM343.438 147.76V148.607H344.285V147.76H343.438ZM250.748 147.76H249.901V148.607H250.748V147.76ZM250.748 114.134V113.287H249.901V114.134H250.748ZM308.695 38.8162L307.885 38.5664L263.836 181.261L264.646 181.511L265.455 181.761L309.504 39.0661L308.695 38.8162ZM264.646 181.511V180.664H217.867V181.511V182.358H264.646V181.511ZM217.867 181.511L218.662 181.803L285.046 1.13922L284.251 0.847067L283.456 0.554914L217.072 181.219L217.867 181.511ZM284.251 0.847067V1.69413H313.906V0.847067V-1.01328e-06H284.251V0.847067ZM313.906 0.847067L313.067 0.731882L307.856 38.701L308.695 38.8162L309.534 38.9314L314.745 0.962251L313.906 0.847067ZM345.175 181.511L345.984 181.26L301.811 38.5657L301.002 38.8162L300.193 39.0667L344.366 181.761L345.175 181.511ZM301.002 38.8162L301.839 38.6903L296.132 0.721144L295.294 0.847067L294.456 0.972989L300.164 38.9421L301.002 38.8162ZM295.294 0.847067V1.69413H325.322V0.847067V-1.01328e-06H295.294V0.847067ZM325.322 0.847067L324.527 1.14066L391.283 181.804L392.078 181.511L392.873 181.217L326.116 0.553472L325.322 0.847067ZM392.078 181.511V180.664H345.175V181.511V182.358H392.078V181.511ZM343.438 114.134H342.591V147.76H343.438H344.285V114.134H343.438ZM343.438 147.76V146.913H250.748V147.76V148.607H343.438V147.76ZM250.748 147.76H251.596V114.134H250.748H249.901V147.76H250.748ZM250.748 114.134V114.981H343.438V114.134V113.287H250.748V114.134ZM419.5 0.847067L420.28 0.516371L420.061 -1.01328e-06H419.5V0.847067ZM452.754 79.267L451.974 79.5977L452.753 81.4333L453.534 79.5987L452.754 79.267ZM486.132 0.847067V-1.01328e-06H485.572L485.353 0.515326L486.132 0.847067ZM533.035 0.847067L533.793 1.22686L534.408 -1.01328e-06H533.035V0.847067ZM474.965 116.616L474.208 116.236L474.118 116.415V116.616H474.965ZM474.965 181.511V182.358H475.812V181.511H474.965ZM430.668 181.511H429.821V182.358H430.668V181.511ZM430.668 116.616H431.515V116.415L431.424 116.235L430.668 116.616ZM372.473 0.847067V-1.01328e-06H371.099L371.716 1.22751L372.473 0.847067ZM419.5 0.847067L418.72 1.17776L451.974 79.5977L452.754 79.267L453.534 78.9363L420.28 0.516371L419.5 0.847067ZM452.754 79.267L453.534 79.5987L486.912 1.17881L486.132 0.847067L485.353 0.515326L451.975 78.9352L452.754 79.267ZM486.132 0.847067V1.69413H533.035V0.847067V-1.01328e-06H486.132V0.847067ZM533.035 0.847067L532.278 0.467273L474.208 116.236L474.965 116.616L475.722 116.996L533.793 1.22686L533.035 0.847067ZM474.965 116.616H474.118V181.511H474.965H475.812V116.616H474.965ZM474.965 181.511V180.664H430.668V181.511V182.358H474.965V181.511ZM430.668 181.511H431.515V116.616H430.668H429.821V181.511H430.668ZM430.668 116.616L431.424 116.235L373.23 0.466625L372.473 0.847067L371.716 1.22751L429.911 116.996L430.668 116.616ZM372.473 0.847067V1.69413H419.5V0.847067V-1.01328e-06H372.473V0.847067ZM632.425 0.847067V-1.01328e-06H631.578V0.847067H632.425ZM675.978 0.847067H676.825V-1.01328e-06H675.978V0.847067ZM667.168 154.585L667.892 155.024L667.894 155.022L667.168 154.585ZM642.476 176.547L642.835 177.314L642.476 176.547ZM567.778 176.547L567.421 177.315L567.423 177.317L567.778 176.547ZM542.714 154.585L541.991 155.026L541.995 155.033L542.714 154.585ZM533.78 0.847067V-1.01328e-06H532.933V0.847067H533.78ZM577.457 0.847067H578.304V-1.01328e-06H577.457V0.847067ZM580.683 137.089L579.912 137.441L579.915 137.446L580.683 137.089ZM629.323 137.089L630.097 137.435L630.099 137.43L629.323 137.089ZM632.425 0.847067V1.69413H675.978V0.847067V-1.01328e-06H632.425V0.847067ZM675.978 0.847067H675.131V118.849H675.978H676.825V0.847067H675.978ZM675.978 118.849H675.131C675.131 132.794 672.22 144.547 666.442 154.148L667.168 154.585L667.894 155.022C673.863 145.101 676.825 133.03 676.825 118.849H675.978ZM667.168 154.585L666.444 154.145C660.66 163.676 652.559 170.886 642.116 175.78L642.476 176.547L642.835 177.314C653.57 172.283 661.93 164.85 667.892 155.024L667.168 154.585ZM642.476 176.547L642.116 175.78C631.663 180.681 619.341 183.145 605.127 183.145V183.992V184.839C619.535 184.839 632.112 182.341 642.835 177.314L642.476 176.547ZM605.127 183.992V183.145C591.081 183.145 578.756 180.681 568.133 175.778L567.778 176.547L567.423 177.317C578.308 182.34 590.883 184.839 605.127 184.839V183.992ZM567.778 176.547L568.136 175.779C557.609 170.883 549.381 163.671 543.432 154.136L542.714 154.585L541.995 155.033C548.124 164.856 556.606 172.285 567.421 177.315L567.778 176.547ZM542.714 154.585L543.437 154.144C537.579 144.543 534.627 132.792 534.627 118.849H533.78H532.933C532.933 133.032 535.937 145.105 541.991 155.026L542.714 154.585ZM533.78 118.849H534.627V0.847067H533.78H532.933V118.849H533.78ZM533.78 0.847067V1.69413H577.457V0.847067V-1.01328e-06H533.78V0.847067ZM577.457 0.847067H576.61V118.849H577.457H578.304V0.847067H577.457ZM577.457 118.849H576.61C576.61 126.366 577.694 132.578 579.912 137.441L580.683 137.089L581.454 136.738C579.37 132.17 578.304 126.222 578.304 118.849H577.457ZM580.683 137.089L579.915 137.446C582.136 142.231 585.404 145.77 589.722 148.016L590.113 147.264L590.504 146.512C586.55 144.456 583.531 141.212 581.451 136.733L580.683 137.089ZM590.113 147.264L589.722 148.016C594.007 150.243 599.152 151.337 605.127 151.337V150.49V149.643C599.355 149.643 594.492 148.586 590.504 146.512L590.113 147.264ZM605.127 150.49V151.337C611.182 151.337 616.331 150.244 620.538 148.012L620.141 147.264L619.744 146.516C615.844 148.585 610.985 149.643 605.127 149.643V150.49ZM620.141 147.264L620.538 148.012C624.776 145.764 627.96 142.22 630.097 137.435L629.323 137.089L628.55 136.744C626.55 141.223 623.613 144.463 619.744 146.516L620.141 147.264ZM629.323 137.089L630.099 137.43C632.23 132.57 633.272 126.363 633.272 118.849H632.425H631.578C631.578 126.225 630.552 132.178 628.547 136.749L629.323 137.089ZM632.425 118.849H633.272V0.847067H632.425H631.578V118.849H632.425ZM886.049 148.009H886.896V147.161H886.049V148.009ZM886.049 181.511V182.358H886.896V181.511H886.049ZM794.725 181.511H793.878V182.358H794.725V181.511ZM794.725 148.009V147.161H793.878V148.009H794.725ZM810.235 0.847067H811.082V-1.01328e-06H810.235V0.847067ZM810.235 181.511V182.358H811.082V181.511H810.235ZM766.682 181.511H765.835V182.358H766.682V181.511ZM766.682 0.847067V-1.01328e-06H765.835V0.847067H766.682ZM886.049 148.009H885.202V181.511H886.049H886.896V148.009H886.049ZM886.049 181.511V180.664H794.725V181.511V182.358H886.049V181.511ZM794.725 181.511H795.572V148.009H794.725H793.878V181.511H794.725ZM794.725 148.009V148.856H886.049V148.009V147.161H794.725V148.009ZM810.235 0.847067H809.388V181.511H810.235H811.082V0.847067H810.235ZM810.235 181.511V180.664H766.682V181.511V182.358H810.235V181.511ZM766.682 181.511H767.529V0.847067H766.682H765.835V181.511H766.682ZM766.682 0.847067V1.69413H810.235V0.847067V-1.01328e-06H766.682V0.847067ZM950.696 0.847067H951.543V-1.01328e-06H950.696V0.847067ZM950.696 181.511V182.358H951.543V181.511H950.696ZM907.267 181.511H906.42V182.358H907.267V181.511ZM907.267 0.847067V-1.01328e-06H906.42V0.847067H907.267ZM950.696 0.847067H949.849V181.511H950.696H951.543V0.847067H950.696ZM950.696 181.511V180.664H907.267V181.511V182.358H950.696V181.511ZM907.267 181.511H908.114V0.847067H907.267H906.42V181.511H907.267ZM907.267 0.847067V1.69413H950.696V0.847067V-1.01328e-06H907.267V0.847067ZM1079.37 0.847067V-1.01328e-06H1078.52V0.847067H1079.37ZM1122.92 0.847067H1123.77V-1.01328e-06H1122.92V0.847067ZM1114.11 154.585L1114.84 155.024L1114.84 155.022L1114.11 154.585ZM1089.42 176.547L1089.78 177.314L1089.42 176.547ZM1014.72 176.547L1014.37 177.315L1014.37 177.317L1014.72 176.547ZM989.658 154.585L988.935 155.026L988.939 155.033L989.658 154.585ZM980.724 0.847067V-1.01328e-06H979.877V0.847067H980.724ZM1024.4 0.847067H1025.25V-1.01328e-06H1024.4V0.847067ZM1027.63 137.089L1026.86 137.441L1026.86 137.446L1027.63 137.089ZM1076.27 137.089L1077.04 137.435L1077.04 137.43L1076.27 137.089ZM1079.37 0.847067V1.69413H1122.92V0.847067V-1.01328e-06H1079.37V0.847067ZM1122.92 0.847067H1122.07V118.849H1122.92H1123.77V0.847067H1122.92ZM1122.92 118.849H1122.07C1122.07 132.794 1119.16 144.547 1113.39 154.148L1114.11 154.585L1114.84 155.022C1120.81 145.101 1123.77 133.03 1123.77 118.849H1122.92ZM1114.11 154.585L1113.39 154.145C1107.6 163.676 1099.5 170.886 1089.06 175.78L1089.42 176.547L1089.78 177.314C1100.51 172.283 1108.87 164.85 1114.84 155.024L1114.11 154.585ZM1089.42 176.547L1089.06 175.78C1078.61 180.681 1066.28 183.145 1052.07 183.145V183.992V184.839C1066.48 184.839 1079.06 182.341 1089.78 177.314L1089.42 176.547ZM1052.07 183.992V183.145C1038.02 183.145 1025.7 180.681 1015.08 175.778L1014.72 176.547L1014.37 177.317C1025.25 182.34 1037.83 184.839 1052.07 184.839V183.992ZM1014.72 176.547L1015.08 175.779C1004.55 170.883 996.325 163.671 990.376 154.136L989.658 154.585L988.939 155.033C995.068 164.856 1003.55 172.285 1014.37 177.315L1014.72 176.547ZM989.658 154.585L990.381 154.144C984.523 144.543 981.571 132.792 981.571 118.849H980.724H979.877C979.877 133.032 982.881 145.105 988.935 155.026L989.658 154.585ZM980.724 118.849H981.571V0.847067H980.724H979.877V118.849H980.724ZM980.724 0.847067V1.69413H1024.4V0.847067V-1.01328e-06H980.724V0.847067ZM1024.4 0.847067H1023.55V118.849H1024.4H1025.25V0.847067H1024.4ZM1024.4 118.849H1023.55C1023.55 126.366 1024.64 132.578 1026.86 137.441L1027.63 137.089L1028.4 136.738C1026.31 132.17 1025.25 126.222 1025.25 118.849H1024.4ZM1027.63 137.089L1026.86 137.446C1029.08 142.231 1032.35 145.77 1036.67 148.016L1037.06 147.264L1037.45 146.512C1033.49 144.456 1030.48 141.212 1028.4 136.733L1027.63 137.089ZM1037.06 147.264L1036.67 148.016C1040.95 150.243 1046.1 151.337 1052.07 151.337V150.49V149.643C1046.3 149.643 1041.44 148.586 1037.45 146.512L1037.06 147.264ZM1052.07 150.49V151.337C1058.13 151.337 1063.28 150.244 1067.48 148.012L1067.08 147.264L1066.69 146.516C1062.79 148.585 1057.93 149.643 1052.07 149.643V150.49ZM1067.08 147.264L1067.48 148.012C1071.72 145.764 1074.9 142.22 1077.04 137.435L1076.27 137.089L1075.49 136.744C1073.49 141.223 1070.56 144.463 1066.69 146.516L1067.08 147.264ZM1076.27 137.089L1077.04 137.43C1079.17 132.57 1080.22 126.363 1080.22 118.849H1079.37H1078.52C1078.52 126.225 1077.5 132.178 1075.49 136.749L1076.27 137.089ZM1079.37 118.849H1080.22V0.847067H1079.37H1078.52V118.849H1079.37Z" fill="white" mask="url(#path-1-outside-1_18_6)"/>
</svg>
