<svg width="33" height="33" viewBox="0 0 33 33" fill="none" xmlns="http://www.w3.org/2000/svg">
<path d="M6.90886 6.16432C6.61919 6.16432 6.35377 6.28558 6.17371 6.48429C6.01147 6.65254 5.91063 6.88142 5.90332 7.13031V7.19645C5.90654 7.31452 5.92992 7.42533 5.97172 7.52715C5.97347 7.53614 5.97727 7.5434 5.98049 7.55239C6.01323 7.62926 6.05444 7.70062 6.10677 7.76705C6.1246 7.79229 6.14477 7.8155 6.1664 7.83668C6.17058 7.84258 6.17538 7.84803 6.18072 7.85292L9.38589 11.6293L10.5431 12.9924L14.0082 17.0734L15.1654 18.4344L18.2677 22.0896L19.4229 23.4506V32.9983C20.0776 33 20.7071 32.7478 21.1771 32.2954C21.1791 32.2954 21.1791 32.2954 21.1791 32.2934L21.5197 31.891L29.8408 22.0896L32.6891 18.7332C32.7034 18.719 32.716 18.7028 32.7288 18.6868C32.7899 18.6117 32.8385 18.5273 32.8744 18.4344C32.9197 18.3236 32.9431 18.2021 32.9431 18.073V7.16251C32.9431 6.8994 32.8402 6.65776 32.671 6.48255C32.5774 6.3816 32.4636 6.30115 32.3369 6.24635C32.2102 6.19155 32.0734 6.16361 31.9352 6.16432H6.90886Z" fill="black"/>
<path d="M6.90886 6.16432C6.61919 6.16432 6.35377 6.28558 6.17371 6.48429C6.01147 6.65254 5.91063 6.88142 5.90332 7.13031V7.19645C5.90654 7.31452 5.92992 7.42533 5.97172 7.52715C5.97347 7.53614 5.97727 7.5434 5.98049 7.55239C6.01323 7.62926 6.05444 7.70062 6.10677 7.76705C6.1246 7.79229 6.14477 7.8155 6.1664 7.83668C6.17058 7.84258 6.17538 7.84803 6.18072 7.85292L9.38589 11.6293L10.5431 12.9924L14.0082 17.0734L15.1654 18.4345L18.2677 22.0896L19.4229 23.4506V32.9983C20.0776 33 20.7071 32.7478 21.1771 32.2954C21.1791 32.2954 21.1791 32.2954 21.1791 32.2934L21.5197 31.891L29.8408 22.0896L32.6891 18.7332C32.7034 18.719 32.716 18.7028 32.7288 18.6868C32.7899 18.6117 32.8385 18.5273 32.8744 18.4345C32.9197 18.3236 32.9431 18.2021 32.9431 18.073V7.16251C32.9431 6.8994 32.8402 6.65776 32.671 6.48255C32.5774 6.3816 32.4636 6.30115 32.3369 6.24635C32.2102 6.19155 32.0734 6.16361 31.9352 6.16432H6.90886Z" fill="url(#paint0_linear_34_73)"/>
<path d="M19.4232 28.9163V32.9984C18.7687 32.999 18.1396 32.7468 17.6691 32.2953C17.6673 32.2953 17.6673 32.2953 17.6673 32.2938L17.3268 31.8912L9.0056 22.0897L6.17371 18.7531C6.16647 18.749 6.16074 18.7427 6.15734 18.7351L6.11232 18.6835C6.10881 18.6797 6.10648 18.6762 6.10355 18.6724C6.04804 18.6 6.00362 18.5199 5.97172 18.4346C5.92961 18.3304 5.90645 18.2196 5.90332 18.1074V18.0395C5.90332 18.018 5.90507 17.9963 5.90887 17.9748C5.92846 17.7497 6.0258 17.5489 6.17371 17.3917C6.26757 17.2913 6.38131 17.2112 6.50781 17.1564C6.63432 17.1017 6.77085 17.0734 6.90886 17.0735H9.36631L10.5218 18.4346L13.6241 22.0897L18.7109 28.0809L19.4212 28.9181L19.4232 28.9163Z" fill="#CFCCCB"/>
<path d="M19.4232 23.4516V28.9157L19.4215 28.9175L18.7117 28.0806L13.625 22.0903L10.5221 18.4354L9.36631 17.0735L6.155 13.2931C6.07578 13.2049 6.01338 13.1031 5.97084 12.9928C5.92933 12.8875 5.90649 12.7758 5.90332 12.6627V12.5954C5.90994 12.3545 6.00627 12.1245 6.17371 11.9499C6.26685 11.8485 6.38041 11.7675 6.50704 11.7123C6.63366 11.6571 6.77055 11.6289 6.90886 11.6294H9.38648L10.544 12.9928L14.0088 17.0735L15.1646 18.4354L18.2674 22.09L19.4232 23.4516Z" fill="white"/>
<defs>
<linearGradient id="paint0_linear_34_73" x1="2739.73" y1="-355.233" x2="415.268" y2="2013.21" gradientUnits="userSpaceOnUse">
<stop stop-color="#DCDCDC"/>
<stop offset="1" stop-color="white"/>
</linearGradient>
</defs>
</svg>
